<svg version="1.2" xmlns="http://www.w3.org/2000/svg" viewBox="0 0 376 397" width="376" height="397">
	<title>logo-abertura</title>
	<style>
		.s0 { fill: #337d70 } 
		.s1 { fill: #ca873e } 
		.s2 { fill: #6fc5a0 } 
		.s3 { fill: #96e6c3 } 
		.s4 { fill: #3bb779 } 
		.s5 { fill: #f7adaf } 
	</style>
	<g id="Background">
		<path id="Path 0" class="s0" d="m171.5 58.2c-3.8 0.5-9.7 1.6-13 2.4-3.3 0.9-9.2 3-13 4.9-4.1 1.9-8.5 5-10.8 7.4-2 2.3-3.7 4.5-3.7 5.1 0 0.5 0.8 0.7 1.8 0.4 0.9-0.3 4.9-1.4 8.7-2.4 3.8-1.1 11.1-2.7 16-3.7 6.9-1.4 14-1.8 30.5-1.8 18.3 0 23.1 0.4 32.5 2.3 6.1 1.2 13.8 3.1 17.3 4.2 3.8 1.2 6.4 1.6 6.7 1 0.3-0.6-1.2-2.8-3.2-4.9-2.1-2.2-7.1-5.5-11.3-7.5-4.1-1.9-10.2-4.2-13.5-5-3.3-0.9-9.8-2-14.5-2.6-4.7-0.5-11.9-0.9-16-0.9-4.1 0.1-10.7 0.6-14.5 1.1zm-10.9 16.5c-0.3 0.3-2 0.5-3.6 0.5-1.7-0.1-3 0.2-3.1 0.7-0.1 0.4-3.5 2.1-7.8 3.6-4.2 1.5-11.9 4.9-17.1 7.6-5.2 2.7-13.3 7.8-18 11.3-5.1 3.8-12.3 10.6-18.1 17.2-5.3 6-12.4 15.2-15.9 20.4-3.4 5.2-8.4 13.8-11 19-2.6 5.2-6.4 14-8.5 19.5-2.1 5.5-5.2 15.6-6.9 22.5-1.7 6.9-3.5 12.9-3.8 13.5-0.3 0.6-1.3 4.5-2.2 8.8-1 4.9-1.6 12.8-1.6 21.9 0 7.9 0.7 18.4 1.5 23.3 0.8 4.9 2.2 11.5 3.1 14.5 0.9 3 2.8 7.7 4.1 10.5 1.4 2.7 2.9 5.6 3.4 6.2 0.7 1 9.8-4.6 34.2-20.8l33.2-22.1c-9.3-5.2-26-14.5-43.2-24-17.2-9.5-31.2-17.5-31.2-17.8 0-0.3 17.1-9.5 38-20.5 21-11 38.7-20.4 39.5-21 1.2-0.8-3-5.5-19.8-22.2l-21.3-21.1c20.2-3.2 32.9-5.1 41.4-6.4l15.3-2.3c6.7-13.9 10.4-20.7 12.6-24 2.2-3.3 6.5-8.4 9.6-11.2 3.1-2.9 6.7-5.5 8.1-5.8 1.4-0.3 2.5-1 2.5-1.5 0-0.6-2.8-1-6.3-1-3.5 0-6.7 0.3-7.1 0.7zm41.5-0.1c0 0.5 1.6 1.7 3.7 2.6 2 0.9 6.3 4.5 9.6 8 3.2 3.5 7.4 9 9.4 12.3 1.9 3.3 4.7 8.9 6.3 12.5 1.5 3.6 3.3 6.8 4.1 7.2 0.7 0.4 12.3 2.3 25.8 4.3 13.5 2 25.8 4 27.3 4.3 2.7 0.7 2.1 1.4-18.5 21.8l-21.3 21.2c61.6 32.3 79.4 41.9 79.4 42.2 0 0.3-14 8.3-31.2 17.8-17.2 9.5-33.9 18.8-37.2 20.6l-6 3.4c66.4 44.1 66.5 44.2 68 41.9 0.8-1.2 2.8-5.3 4.4-9.2 1.6-3.9 3.8-10.8 4.8-15.5 1.4-6.6 1.8-12.9 1.8-28.5 0-17.9-0.2-20.7-2.2-27-1.3-3.8-3.4-11.5-4.7-17-1.4-5.5-3.9-14.1-5.6-19-1.8-4.9-5.8-14.4-9-21-3.2-6.6-8.6-16.3-12-21.5-3.5-5.2-10.6-14.4-15.9-20.4-5.8-6.6-13-13.4-18.1-17.2-4.7-3.5-12.8-8.6-18-11.3-5.2-2.7-13-6.2-17.3-7.8-4.3-1.5-7.8-3.1-7.7-3.6 0-0.4-1-0.7-2.2-0.7-1.3 0-5.7-0.3-9.9-0.6-4.2-0.3-7.7-0.2-7.8 0.2z"/>
		<path id="Path 1" fill-rule="evenodd" class="s1" d="m69 315c6.8 0 11.3 0.5 16 2 3.6 1.1 8.6 3.3 11.3 5 2.7 1.7 4.7 3.7 4.7 4.8 0 0.9-2.1 4.8-4.8 8.5-4.1 6-5 6.8-7.2 6.4-1.4-0.3-5.2-1.6-8.5-3.1-4.1-1.7-7.9-2.6-12-2.6-4.4-0.1-6.4 0.4-7.5 1.6-1.3 1.5-1.3 1.8 0.5 3.3 1.1 0.9 7.2 2.9 13.5 4.4 7.6 1.8 13.4 3.8 17 5.9 3.5 2.1 6.4 4.9 8.2 7.8 1.8 2.8 3.1 6.5 3.5 10 0.3 3 0.1 7.8-0.6 10.5-0.7 3.2-2.5 6.6-4.9 9.4-2 2.5-5.5 5.3-7.7 6.3-3.3 1.4-6.7 1.8-18.8 1.8-12.1 0-15.6-0.3-19.9-1.9-2.9-1.1-7.5-3.5-10.3-5.3-2.7-1.8-5.1-4.2-5.3-5.3-0.2-1.1 1.6-4.8 4-8.2 2.4-3.4 5.2-6.5 6.3-6.9 1.3-0.3 4.7 0.8 9.4 3.3 6.2 3.2 8.6 3.9 14.5 4.1 5.8 0.3 7.4 0 8.9-1.5 1-1 1.8-2.1 1.7-2.6 0-0.4-0.6-1.3-1.3-2-0.6-0.7-5.7-2.1-11.2-3.1-5.5-1-12.3-2.7-15-3.8-2.8-1.1-6.5-3.2-8.4-4.6-1.9-1.5-4.5-5-5.8-7.7-1.4-3.1-2.3-6.9-2.3-10 0-2.8 0.4-6.6 1-8.5 0.5-1.9 1.9-5 3.2-6.9 1.3-1.9 3.4-4.3 4.8-5.3 1.4-1 5-2.8 8-3.8 3.9-1.4 8.3-2 15-2zm233 0c6.8 0 11.3 0.5 16 2 3.6 1.1 8.6 3.3 11.2 5 2.8 1.7 4.8 3.7 4.8 4.7 0 1-2.1 4.9-4.8 8.6-4.1 6-5 6.8-7.2 6.4-1.4-0.3-5.2-1.6-8.5-3.1-4.1-1.7-7.9-2.6-12-2.6-4.4-0.1-6.4 0.4-7.5 1.6-1.3 1.5-1.3 1.8 0.5 3.3 1.1 0.9 7.2 2.9 13.5 4.4 7.6 1.8 13.4 3.8 17 5.9 3.5 2.1 6.4 4.9 8.2 7.8 1.8 2.8 3.1 6.5 3.5 10 0.3 3 0.1 7.7-0.6 10.5-0.7 3.2-2.5 6.6-4.9 9.4-2 2.5-5.5 5.3-7.7 6.3-3.3 1.4-6.7 1.8-18.8 1.8-12.1 0-15.6-0.3-19.9-1.9-2.9-1.1-7.5-3.5-10.3-5.3-2.7-1.8-5.1-4.2-5.3-5.3-0.2-1.1 1.6-4.8 4-8.2 2.4-3.4 5.2-6.5 6.3-6.9 1.3-0.3 4.7 0.8 9.4 3.3 6.2 3.2 8.6 3.9 14.5 4.1 5.8 0.3 7.4 0 8.9-1.5 1-1 1.8-2.1 1.7-2.6 0-0.4-0.6-1.3-1.2-2-0.7-0.7-5.8-2.1-11.3-3.1-5.5-1-12.2-2.7-15-3.8-2.7-1.1-6.5-3.2-8.4-4.6-1.9-1.5-4.5-5-5.8-7.7-1.4-3.1-2.3-6.9-2.3-10 0-2.8 0.4-6.6 1-8.5 0.5-1.9 1.9-5 3.2-6.9 1.3-1.9 3.4-4.3 4.8-5.3 1.4-1 5-2.8 8-3.8 3.9-1.4 8.3-2 15-2zm-81.7 1c16.1 0 22.3 0.3 25.7 1.5 2.5 0.8 6.5 3.2 9 5.3 2.5 2.2 5.6 6.1 7 8.8 1.8 3.6 2.6 6.9 2.8 12.4 0.2 4.1-0.1 9.4-0.7 11.7-0.6 2.4-2.6 6.2-4.4 8.5-1.8 2.4-5.7 5.6-8.7 7.3-4.9 2.6-6.8 3-16.5 3.5-6.1 0.3-11.6 0.8-12.2 1.2-0.9 0.6-1.3 3.9-1.3 20.8h-11c-8.9 0-11.1-0.3-11.5-1.5-0.3-0.8-0.5-18.4-0.5-39 0-20.6 0.3-38.2 0.6-39 0.5-1.3 3.9-1.5 21.7-1.5zm0.5 29.5c0.2 6.4 0.5 7.6 2.2 8.5 1.1 0.6 3.7 1 5.8 1 2 0 5.2-0.3 7.1-0.7 2-0.5 4.1-1.8 5-3.3 0.9-1.4 1.5-4.1 1.4-6-0.1-2.2-1.1-4.4-2.5-5.8-1.7-1.7-3.9-2.3-8.8-2.7-3.9-0.4-7.3-0.1-8.4 0.5-1.7 0.9-1.9 2.1-1.8 8.5zm-84.6-28.6l22.2 0.6 16.2 37.5c9 20.6 16.3 38.5 16.3 39.8 0.1 2.2-0.1 2.2-24.9 2.2l-2.4-4.7c-1.4-3-3.2-5.1-4.7-5.5-1.3-0.4-6.7-0.8-11.9-0.8-5.2 0-10.4 0.2-11.5 0.5-1.1 0.3-3.2 2.8-7.5 10.5h-12.5c-10.8 0-12.5-0.2-12.3-1.6 0.1-0.8 4.6-12.2 10.1-25.2 5.5-13 12.9-30.4 16.4-38.5zm6.1 49.3c0.7 0.4 2.8 0.8 4.7 0.8 1.9 0 4.1-0.4 4.8-0.8 1-0.6 0.8-2.1-1-7.5-1.3-3.7-2.8-6.7-3.4-6.7-0.6 0-2.3 3-3.7 6.7-2 5.1-2.4 7-1.4 7.5z"/>
		<path id="Path 2" class="s2" d="m144 76.9c-4.7 1-12.6 3.1-17.5 4.6-5 1.5-13 4.5-18 6.7-5 2.1-12.2 5.8-16.2 8.1-4.2 2.4-7.2 4.8-7.1 5.7 0.1 0.8-0.2 6.3-0.5 12.2-0.4 6-0.6 10.8-0.5 10.8 0.2 0 4.6-4.8 9.9-10.7 5.7-6.4 12.8-13.1 17.5-16.5 4.3-3.1 12.2-7.9 17.4-10.6 5.2-2.8 13-6.3 17.3-7.9 4.3-1.5 7.8-3.1 7.7-3.6 0-0.4-0.3-0.7-0.8-0.6-0.4 0-4.5 0.8-9.2 1.8zm77.9-1.1c0 0.4 3.5 2 7.8 3.5 4.3 1.6 12.1 5.1 17.3 7.9 5.2 2.7 13.1 7.5 17.4 10.6 4.7 3.4 11.7 10 17.5 16.5 8.2 9.3 9.6 10.5 9.9 8.5 0.2-1.3-0.1-6.8-0.7-12.3-0.6-5.5-1.7-10.6-2.4-11.3-0.6-0.8-6.6-4-13.2-7.3-6.6-3.2-16.5-7.3-22-9.1-5.5-1.8-10.1-3.6-10.3-4-0.1-0.5-0.6-0.6-1.2-0.3-0.6 0.3-3.8-0.1-7.3-0.9-3.4-0.8-7.7-1.6-9.5-2-1.8-0.3-3.3-0.2-3.3 0.2zm-168.9 71.1c-15.7 10.9-28.9 19.8-29.5 19.7-0.6 0-1 0.6-0.9 1.4 0 0.8 5.4 10.6 12 21.8 6.5 11.2 12.1 20.3 12.4 20.2 0.3 0 1.3-3.7 2.3-8.2 1-4.6 3.6-13.7 5.8-20.3 2.2-6.6 6.5-17.2 9.5-23.5 3.1-6.3 8.4-15.9 11.8-21.3 3.4-5.3 6-9.7 5.7-9.6-0.3 0-13.4 8.9-29.1 19.8zm246.1-10.6c3.4 5 8.7 14.6 12 21.2 3.2 6.6 7.6 17.4 9.8 24 2.2 6.6 4.8 15.7 5.8 20.3 1 4.5 2 8.2 2.3 8.2 0.3 0.1 5.9-9 12.4-20.2 6.6-11.2 12-21 12-21.8 0.1-0.8-0.4-1.5-1-1.5-0.6 0-13.9-8.9-29.7-19.8-15.8-10.8-28.9-19.7-29.2-19.7-0.2 0 2.3 4.2 5.6 9.3zm31.6 79.2c1.4 4.1 1.7 8.8 1.7 25.5 0.1 16.2-0.3 22.3-1.7 29-1 4.7-3.2 11.8-4.8 15.7-1.6 4-2.8 7.5-2.6 7.7 0.1 0.2 11.8-8.7 25.9-19.8 14.1-11 25.8-20.4 26-20.7 0.2-0.4-8.3-8.3-18.7-17.5-10.5-9.3-20.9-18.7-23.3-20.9l-4.3-4zm-307.1 16.3c-12 10.8-22 20.1-22.1 20.7-0.2 0.6 11.2 10.1 25.4 21.1 14.1 11.1 25.8 19.8 25.9 19.3 0.2-0.5-0.6-2.6-1.6-4.7-1.1-2-2.6-6.2-3.5-9.2-0.9-3-2.3-9.6-3.2-14.5-0.8-5-1.4-15.4-1.4-23.5 0-8.4 0.6-17.4 1.4-21.4 0.8-3.8 1.3-7.1 1.2-7.2-0.2-0.1-10.1 8.6-22.1 19.4z"/>
		<path id="Path 3" class="s3" d="m290.3 103.1c0.4 1.9 1 7.8 1.4 13.2l0.8 9.8c45.6 31.3 59.5 40.5 60.2 40.7 0.7 0.1-1-3.5-3.8-8-2.8-4.6-8.1-12.1-11.8-16.8-3.6-4.6-10.4-12.2-15.1-16.9-4.7-4.6-12.8-11.6-18-15.5-5.2-4-10.6-7.8-11.9-8.5-2.3-1.3-2.3-1.2-1.8 2zm-217.8 6.1c-6 4.6-14.6 11.9-19 16.3-4.4 4.4-11 11.8-14.7 16.5-3.6 4.7-8.9 12.2-11.7 16.8-2.8 4.5-4.5 8.1-3.8 8 0.7-0.2 14.1-9.1 29.8-19.9 15.6-10.7 29.1-19.9 29.9-20.3 1.1-0.6 7 4.7 22.8 20.5 16.8 16.9 21 21.6 19.8 22.4-0.8 0.6-18.5 10-39.5 21-20.9 11-38 20.2-38 20.5 0 0.3 14 8.3 31.2 17.8 17.2 9.5 33.9 18.8 37.2 20.6l6 3.4-65.8 43.7c32.3 0.5 43.5 0.1 47.3-0.5 3.6-0.6 8.2-2.1 10.3-3.3 2.1-1.2 4.8-3.8 6-5.7 2.2-3.4 2.2-4.2 1.9-35.5-0.2-17.6 0.2-37.8 0.8-45 0.6-7.2 1.7-17.9 2.6-24 0.8-6.1 2.8-17.1 4.4-24.5 1.6-7.4 4.1-17.3 5.5-22 1.4-4.7 3.4-10.8 4.4-13.5l1.8-5c-3.2 0.4-15.9 2.3-30.2 4.5-14.3 2.2-26.3 4-26.7 4-0.5 0-0.5-5.1-0.2-11.3 0.3-6.1 0.6-11.6 0.5-12.1-0.1-0.5-0.5-1-0.9-1.2-0.4-0.2-5.7 3.3-11.7 7.8zm165.9 21.2c2.4 7.2 5.6 18.5 7.1 25.1 1.4 6.6 2.8 12.2 3.1 12.5 0.2 0.3 9.9-8.9 21.4-20.5 11.5-11.6 20.8-21.1 20.7-21.2-0.1-0.1-11.9-2-26.2-4.2-14.3-2.2-27-4.2-28.3-4.4-2.2-0.3-2.1-0.1 2.2 12.7zm-221.1 46.3c-2.2 4.9-5.4 12.6-7.1 17.3-1.6 4.7-4.2 13.9-5.7 20.5-1.4 6.6-3.2 18.1-3.8 25.5-0.9 10.8-0.8 15 0.3 21 0.7 4.1 2.6 10 4.2 13 1.6 3 5 7.6 7.6 10.3 2.6 2.6 6.7 5.8 9.2 7.1 2.5 1.4 7.2 3.2 10.5 4 3.3 0.9 9.9 1.6 14.8 1.6 8.4 0 8.7-0.1 7.5-1.9-0.7-1.1-1.6-1.9-1.9-1.8-0.3 0.1-12.1-8.8-26.2-19.8-14.1-11-25.6-20.3-25.7-20.8 0-0.4 10.4-9.9 23-21.2l23-20.5c-19.5-32.9-25.2-42.6-25.4-42.8-0.1-0.1-2 3.7-4.3 8.5zm324.4 12.6l-12.7 21.7c35.7 31.8 46 41.3 46 41.8-0.1 0.4-11.6 9.7-25.7 20.7-14.2 11-25.9 19.9-26.2 19.8-0.4-0.1-1.2 0.7-1.8 1.8-1.3 1.8-1 1.9 7.5 1.9 4.8 0 11.4-0.7 14.7-1.6 3.3-0.8 8-2.6 10.5-4 2.5-1.3 6.6-4.5 9.2-7.1 2.6-2.7 6-7.3 7.6-10.3 1.6-3 3.5-8.9 4.2-13 1.1-6 1.2-10.2 0.3-21-0.6-7.4-2.4-18.9-3.8-25.5-1.5-6.6-4.1-15.8-5.7-20.5-1.7-4.7-4.9-12.5-7.2-17.4l-4.1-8.9zm-93.3-18.7c0.3 1 1.1 6.6 2 12.3 0.8 5.8 2 16.6 2.6 24 0.6 7.5 0.9 27.7 0.7 45-0.2 30.9-0.2 31.6 1.9 35 1.2 2 3.9 4.5 6 5.7 2.1 1.2 6.8 2.7 10.4 3.3 3.7 0.7 15 1 26.8 0.8l20.4-0.3-65.7-43.7c9.3-5.2 26-14.5 43.2-24 17.1-9.5 31.2-17.5 31.2-17.8 0-0.2-17.6-9.7-39-21-21.5-11.2-39.4-20.6-39.9-20.8-0.6-0.2-0.8 0.4-0.6 1.5z"/>
		<path id="Path 4" class="s4" d="m168.1 95c-10.7 11.7-19.4 21.5-19.3 21.9 0.1 0.3 6.8 1.2 14.9 2 8.2 0.7 16.8 1.6 19.2 2l4.3 0.6c-40.1 35.5-51.8 46.3-51.9 46.9-0.1 0.6 9.5 9.3 21.5 19.3 11.9 10.1 23.7 20 26.2 22.2l4.5 3.8c-46.1 30.5-59.5 39.6-59.5 40.1-0.1 0.4 12.9 12 28.8 25.7 15.9 13.8 28.8 25.3 28.6 25.8-0.2 0.4 0 0.7 0.6 0.7 0.6 0 1.2-17.5 1.6-49.3 0.3-27 0.4-79.3 0.2-116l0.2-67.6z"/>
		<path id="Path 5" class="s0" d="m188 153c0 43.7-1.2 78.9-1 116.7 0.1 20.4-0.9 33.8-0.9 35.5-0.1 0.7 15-11.4 30.4-24.3 15.4-12.9 29.1-24.2 30.5-25.1 1.4-1 2.3-1.9 2-2.1-0.3-0.2-13.9-9.1-30.2-19.7-16.3-10.7-29.7-19.8-29.7-20.3-0.1-0.4 11.6-10.6 25.9-22.7 14.3-12.1 26-22.2 26-22.5 0-0.3-11.7-11-26-23.8-14.4-12.7-23.6-23.1-23.5-23.2 0.2-0.1 5.7-1.1 15-2 9.3-0.9 18-1.8 19.3-2 1.9-0.4 2-0.7 1-2.4-0.7-1.1-1.5-1.9-1.8-1.8-0.3 0.1-8.1-8.1-17.4-18.3-9.3-10.2-17.7-19-18.2-20-1.7-2.8-1.4-0.7-1.4 0.3 0 4.2 0 22.9 0 77.7z"/>
		<path id="Forma 2" class="s0" d="m409 162"/>
		<path id="Forma 1" class="s0" d="m-75 249"/>
		<path id="Path 6" class="s5" d="m186.7 2.7c-0.3 0.4-3.1 7.3-6.2 15.3-3.1 8-6 14.8-6.3 15.2-0.4 0.4-5.9-3.1-12.2-7.7-6.3-4.7-11.8-8.1-12.2-7.7-0.4 0.4 0.1 6.3 1.3 13.2 1.1 6.9 2.6 15.5 3.4 19.3 1.3 5.8 1.8 6.7 3.8 6.7 1.2 0 3.7-0.3 5.5-0.7 3-0.7 3.6-1.5 7-10.1 2.4-6.1 4.1-9.1 5-8.7 0.6 0.3 3.7 2.3 6.7 4.5l5.5 4 13-9c2.2 5 3.9 9.2 5.2 12.5 2.2 5.5 2.7 6.1 6.4 6.9 2.1 0.5 4.7 0.6 5.7 0.2 1.1-0.4 2.1-2.5 2.8-5.9 0.6-2.8 2-11.4 3.2-19 1.2-7.6 2-14 1.7-14.2-0.3-0.2-5.8 3.4-12.2 8.1-6.5 4.6-11.9 8.3-12.1 8.1-0.2-0.1-3-7.1-6.3-15.6-3.2-8.5-6.4-15.6-7-15.8-0.6-0.2-1.4 0-1.7 0.4z"/>
		<path id="Path 7" class="s3" d="m181.5 74c-1.7 0.5-5.2 2.4-8 4.2-2.7 1.8-7.1 6-9.8 9.3-2.6 3.3-7 10.4-9.8 15.8-2.7 5.3-4.7 10.2-4.4 10.7 0.3 0.5 8.8-8.1 19-19.3 10.1-11.1 18.5-20.5 18.5-20.9 0-0.5-0.6-0.8-1.2-0.7-0.7 0-2.6 0.5-4.3 0.9zm7.7 0.2c0.3 0.7 8.3 9.9 17.9 20.4 9.6 10.6 17.8 18.9 18.2 18.5 0.5-0.3-1.4-5.1-4.2-10.6-2.8-5.5-7-12.3-9.3-15.2-2.4-2.9-6.1-6.5-8.3-8.2-2.2-1.6-6-3.7-8.5-4.6-2.5-0.8-4.9-1.5-5.4-1.5-0.4 0-0.6 0.6-0.4 1.2zm-45 52.6c-1.7 5.4-4 13.1-5.1 17.2-1.1 4.1-3.1 13.3-4.5 20.5-1.3 7.2-3.2 18.6-4 25.5-0.9 6.9-2 18.3-2.6 25.5-0.5 7.2-1 21.1-1 31 0 14.1 0.4 19.4 1.8 24.5 0.9 3.6 3.3 9.1 5.2 12.4 1.9 3.2 5.3 7.4 7.5 9.3 2.2 2 7.2 5.1 11 6.9 3.8 1.9 10.5 4.1 14.8 4.9 4.2 0.8 10 1.5 12.7 1.5 2.8 0 5.2-0.3 5.4-0.8 0.2-0.4-12.7-12-28.6-25.7-15.9-13.8-28.9-25.3-28.8-25.8 0-0.4 13.4-9.5 29.8-20.3l29.7-19.7c-7-6-18.8-15.9-30.7-26-12-10-21.6-18.7-21.5-19.3 0.1-0.6 11.8-11.4 26-24 14.1-12.6 25.6-23 25.5-23.1-0.2 0-7.7-0.8-16.8-1.7-9.1-0.9-17.9-1.8-19.7-2l-3.1-0.4zm65.8-7.8c-9.1 0.9-17.6 1.9-18.9 2.1-2.1 0.3 1.3 3.7 23 22.9 14 12.4 25.9 22.8 26.4 23.1 0.7 0.4 0.7-1.2 0.2-4.5-0.5-2.8-2.4-11-4.2-18.2-1.9-7.1-4.5-16.1-5.8-20-1.3-3.8-2.8-7-3.3-7.1-0.5 0-8.3 0.7-17.4 1.7zm5.2 71.9c-14.5 12.2-26.2 22.5-26.2 22.9 0.1 0.3 13.3 9.3 29.3 19.9 16.1 10.6 29.5 19.2 30 19.2 0.4 0 0.7-3.9 0.7-8.7 0-4.8-0.5-15.5-1-23.8-0.6-8.2-1.9-22.4-3.1-31.5-1.2-9-2.4-17.3-2.7-18.3-0.6-1.6-5 1.8-27 20.3zm2.6 88.8c-16.3 13.6-29.7 25.2-29.7 25.7-0.1 0.7 3.3 0.8 9.7 0.3 5.3-0.4 12-1.3 14.7-2.1 2.8-0.7 7.6-2.5 10.8-4 3.1-1.5 8.1-4.9 11-7.5 2.8-2.7 6.7-7.6 8.4-10.8 1.8-3.2 3.9-9 4.8-12.9 0.8-3.8 1.5-8.4 1.5-10.2 0-1.8-0.3-3.3-0.7-3.3-0.5 0.1-14.1 11.2-30.5 24.8z"/>
	</g>
</svg>